<svg xmlns="http://www.w3.org/2000/svg" width="24" height="24" fill="none"><path d="M9.38 3.75a.82.82 0 0 1 .818.819.82.82 0 0 1-.697.81l-.121.009H3.076a.44.44 0 0 0-.432.352l-.009.089v15.093a.44.44 0 0 0 .352.432l.089.009h15.097a.44.44 0 0 0 .431-.352l.009-.089v-6.285a.82.82 0 0 1 .818-.819.82.82 0 0 1 .809.698l.009.121v6.285a2.08 2.08 0 0 1-1.897 2.071l-.179.008H3.076a2.08 2.08 0 0 1-2.069-1.899L1 20.922V5.828a2.08 2.08 0 0 1 1.897-2.071l.179-.008H9.38zM22.238 1l.114.016.059.015.131.05c.229.11.409.325.45.607l.009.124V9.24a.81.81 0 0 1-1.612.12l-.009-.12V3.766L7.883 17.263a.81.81 0 0 1-1.046.085l-.1-.085a.81.81 0 0 1-.085-1.046l.085-.1L20.232 2.621H14.75a.81.81 0 0 1-.81-.811.81.81 0 0 1 .691-.802L14.75 1h7.488z" fill="currentColor"/></svg>
