<svg width="192" height="192" viewBox="0 0 192 192" fill="none" xmlns="http://www.w3.org/2000/svg">
<path d="M119.614 6.61348C120.383 6.16761 121.365 6.45179 121.783 7.24117L134.515 31.2843C134.775 31.7756 135.272 32.0932 135.823 32.1208L162.803 33.4757C163.688 33.5202 164.362 34.2951 164.291 35.1873L162.122 62.3605C162.078 62.9158 162.325 63.4539 162.774 63.778L184.745 79.6381C185.466 80.1589 185.618 81.1784 185.08 81.8901L168.698 103.566C168.364 104.009 168.284 104.597 168.488 105.114L178.474 130.444C178.802 131.276 178.384 132.217 177.55 132.522L152.156 141.819C151.637 142.009 151.255 142.46 151.15 143.006L145.981 169.764C145.812 170.643 144.956 171.205 144.091 171.007L117.748 164.973C117.21 164.85 116.647 165.021 116.265 165.423L97.5823 185.113C96.9689 185.76 95.9473 185.766 95.3259 185.128L76.3973 165.679C76.0105 165.281 75.4454 165.118 74.9087 165.248L48.6438 171.619C47.7815 171.828 46.9185 171.276 46.7378 170.4L41.2332 143.71C41.1207 143.165 40.733 142.719 40.2117 142.536L14.7033 133.565C13.8658 133.27 13.4355 132.335 13.7529 131.5L23.42 106.044C23.6175 105.523 23.5302 104.937 23.1899 104.498L6.53668 83.0337C5.98992 82.329 6.12889 81.3075 6.84363 80.7776L28.6132 64.6373C29.058 64.3075 29.2988 63.7663 29.2475 63.2116L26.7368 36.0683C26.6544 35.1771 27.3185 34.3937 28.2036 34.3379L55.164 32.6375C55.7149 32.6027 56.2074 32.2788 56.4613 31.7842L68.8903 7.57995C69.2983 6.78528 70.2767 6.48854 71.0513 6.92453L94.6427 20.204C95.1247 20.4753 95.7126 20.4716 96.1912 20.194L119.614 6.61348Z" fill="#2B7AFF"/>
<path fill-rule="evenodd" clip-rule="evenodd" d="M135.101 78.3331L87.5989 122.727L56.504 95.6059L64.8418 86.2652L87.3055 105.858L126.443 69.2812L135.101 78.3331Z" fill="white"/>
</svg>
